HIERARCHY
ROOT mixamorig:Hips
{
	OFFSET -0.000008 104.274872 1.554316
	CHANNELS 6 Xposition Yposition Zposition Xrotation Yrotation Zrotation
	JOINT mixamorig:Spine
	{
		OFFSET -0.000005 10.181595 0.131519
		CHANNELS 6 Xposition Yposition Zposition Xrotation Yrotation Zrotation
		JOINT mixamorig:Spine1
		{
			OFFSET -0.000000 9.893959 -1.470707
			CHANNELS 6 Xposition Yposition Zposition Xrotation Yrotation Zrotation
			JOINT mixamorig:Spine2
			{
				OFFSET -0.000000 9.220757 -1.370641
				CHANNELS 6 Xposition Yposition Zposition Xrotation Yrotation Zrotation
				JOINT mixamorig:Neck
				{
					OFFSET 0.000001 16.740417 -2.049036
					CHANNELS 6 Xposition Yposition Zposition Xrotation Yrotation Zrotation
					JOINT mixamorig:Head
					{
						OFFSET 0.000000 9.617874 1.685006
						CHANNELS 6 Xposition Yposition Zposition Xrotation Yrotation Zrotation
						JOINT mixamorig:HeadTop_End
						{
							OFFSET 0.000002 22.037354 7.501101
							CHANNELS 6 Xposition Yposition Zposition Xrotation Yrotation Zrotation
							End Site
							{
								OFFSET 0.000168 2310.654297 -282.823242
							}
						}
					}
				}
				JOINT mixamorig:RightShoulder
				{
					OFFSET -4.569970 11.014908 -2.160885
					CHANNELS 6 Xposition Yposition Zposition Xrotation Yrotation Zrotation
					JOINT mixamorig:RightArm
					{
						OFFSET -10.592851 -0.524811 -2.232101
						CHANNELS 6 Xposition Yposition Zposition Xrotation Yrotation Zrotation
						JOINT mixamorig:RightForeArm
						{
							OFFSET -27.841511 0.000031 -0.000004
							CHANNELS 6 Xposition Yposition Zposition Xrotation Yrotation Zrotation
							JOINT mixamorig:RightHand
							{
								OFFSET -28.328831 -0.000015 0.000015
								CHANNELS 6 Xposition Yposition Zposition Xrotation Yrotation Zrotation
								JOINT mixamorig:RightHandThumb1
								{
									OFFSET -2.464806 -1.573990 2.681852
									CHANNELS 6 Xposition Yposition Zposition Xrotation Yrotation Zrotation
									JOINT mixamorig:RightHandThumb2
									{
										OFFSET -3.215179 -1.872803 1.924282
										CHANNELS 6 Xposition Yposition Zposition Xrotation Yrotation Zrotation
										JOINT mixamorig:RightHandThumb3
										{
											OFFSET -2.654831 -1.527969 1.512609
											CHANNELS 6 Xposition Yposition Zposition Xrotation Yrotation Zrotation
											JOINT mixamorig:RightHandThumb4
											{
												OFFSET -2.018814 -1.152008 1.108052
												CHANNELS 6 Xposition Yposition Zposition Xrotation Yrotation Zrotation
												End Site
												{
													OFFSET -188.809540 -114.533607 132.431396
												}
											}
										}
									}
								}
								JOINT mixamorig:RightHandIndex1
								{
									OFFSET -9.108284 -0.517868 2.259835
									CHANNELS 6 Xposition Yposition Zposition Xrotation Yrotation Zrotation
									JOINT mixamorig:RightHandIndex2
									{
										OFFSET -3.699989 0.000000 0.001215
										CHANNELS 6 Xposition Yposition Zposition Xrotation Yrotation Zrotation
										JOINT mixamorig:RightHandIndex3
										{
											OFFSET -2.850006 0.000031 -0.000522
											CHANNELS 6 Xposition Yposition Zposition Xrotation Yrotation Zrotation
											JOINT mixamorig:RightHandIndex4
											{
												OFFSET -2.772186 -0.000015 -0.000020
												CHANNELS 6 Xposition Yposition Zposition Xrotation Yrotation Zrotation
												End Site
												{
													OFFSET -277.218445 0.000000 -0.050231
												}
											}
										}
									}
								}
								JOINT mixamorig:RightHandMiddle1
								{
									OFFSET -9.532516 -0.000031 -0.000023
									CHANNELS 6 Xposition Yposition Zposition Xrotation Yrotation Zrotation
									JOINT mixamorig:RightHandMiddle2
									{
										OFFSET -3.700005 -0.000015 0.003713
										CHANNELS 6 Xposition Yposition Zposition Xrotation Yrotation Zrotation
										JOINT mixamorig:RightHandMiddle3
										{
											OFFSET -2.949974 0.000015 -0.002054
											CHANNELS 6 Xposition Yposition Zposition Xrotation Yrotation Zrotation
											JOINT mixamorig:RightHandMiddle4
											{
												OFFSET -2.946640 0.000000 -0.000156
												CHANNELS 6 Xposition Yposition Zposition Xrotation Yrotation Zrotation
												End Site
												{
													OFFSET -294.664337 0.000000 -0.113670
												}
											}
										}
									}
								}
								JOINT mixamorig:RightHandRing1
								{
									OFFSET -9.103600 -0.043076 -1.865134
									CHANNELS 6 Xposition Yposition Zposition Xrotation Yrotation Zrotation
									JOINT mixamorig:RightHandRing2
									{
										OFFSET -3.379288 0.000000 -0.001055
										CHANNELS 6 Xposition Yposition Zposition Xrotation Yrotation Zrotation
										JOINT mixamorig:RightHandRing3
										{
											OFFSET -2.889687 -0.000015 0.000379
											CHANNELS 6 Xposition Yposition Zposition Xrotation Yrotation Zrotation
											JOINT mixamorig:RightHandRing4
											{
												OFFSET -2.638809 -0.000015 0.000941
												CHANNELS 6 Xposition Yposition Zposition Xrotation Yrotation Zrotation
												End Site
												{
													OFFSET -263.880371 0.000000 0.516020
												}
											}
										}
									}
								}
								JOINT mixamorig:RightHandPinky1
								{
									OFFSET -8.076683 -0.486710 -3.806280
									CHANNELS 6 Xposition Yposition Zposition Xrotation Yrotation Zrotation
									JOINT mixamorig:RightHandPinky2
									{
										OFFSET -3.600014 -0.000015 -0.003747
										CHANNELS 6 Xposition Yposition Zposition Xrotation Yrotation Zrotation
										JOINT mixamorig:RightHandPinky3
										{
											OFFSET -2.099983 0.000000 -0.005739
											CHANNELS 6 Xposition Yposition Zposition Xrotation Yrotation Zrotation
											JOINT mixamorig:RightHandPinky4
											{
												OFFSET -2.115768 -0.000031 -0.003680
												CHANNELS 6 Xposition Yposition Zposition Xrotation Yrotation Zrotation
												End Site
												{
													OFFSET -211.577087 0.000000 -0.350686
												}
											}
										}
									}
								}
							}
						}
					}
				}
				JOINT mixamorig:LeftShoulder
				{
					OFFSET 4.570447 11.014725 -2.160855
					CHANNELS 6 Xposition Yposition Zposition Xrotation Yrotation Zrotation
					JOINT mixamorig:LeftArm
					{
						OFFSET 10.592371 -0.524597 -2.232119
						CHANNELS 6 Xposition Yposition Zposition Xrotation Yrotation Zrotation
						JOINT mixamorig:LeftForeArm
						{
							OFFSET 27.841532 -0.000031 0.000026
							CHANNELS 6 Xposition Yposition Zposition Xrotation Yrotation Zrotation
							JOINT mixamorig:LeftHand
							{
								OFFSET 28.328846 -0.000061 0.000022
								CHANNELS 6 Xposition Yposition Zposition Xrotation Yrotation Zrotation
								JOINT mixamorig:LeftHandThumb1
								{
									OFFSET 2.466141 -1.576172 2.681732
									CHANNELS 6 Xposition Yposition Zposition Xrotation Yrotation Zrotation
									JOINT mixamorig:LeftHandThumb2
									{
										OFFSET 3.217812 -1.872070 1.916482
										CHANNELS 6 Xposition Yposition Zposition Xrotation Yrotation Zrotation
										JOINT mixamorig:LeftHandThumb3
										{
											OFFSET 2.656029 -1.528778 1.514513
											CHANNELS 6 Xposition Yposition Zposition Xrotation Yrotation Zrotation
											JOINT mixamorig:LeftHandThumb4
											{
												OFFSET 2.020889 -1.154053 1.115139
												CHANNELS 6 Xposition Yposition Zposition Xrotation Yrotation Zrotation
												End Site
												{
													OFFSET 190.885437 -115.081749 130.048782
												}
											}
										}
									}
								}
								JOINT mixamorig:LeftHandIndex1
								{
									OFFSET 9.109314 -0.518021 2.259871
									CHANNELS 6 Xposition Yposition Zposition Xrotation Yrotation Zrotation
									JOINT mixamorig:LeftHandIndex2
									{
										OFFSET 3.699989 0.000000 -0.000322
										CHANNELS 6 Xposition Yposition Zposition Xrotation Yrotation Zrotation
										JOINT mixamorig:LeftHandIndex3
										{
											OFFSET 2.850006 0.000000 0.000352
											CHANNELS 6 Xposition Yposition Zposition Xrotation Yrotation Zrotation
											JOINT mixamorig:LeftHandIndex4
											{
												OFFSET 2.774864 -0.000031 -0.000027
												CHANNELS 6 Xposition Yposition Zposition Xrotation Yrotation Zrotation
												End Site
												{
													OFFSET 277.486267 0.000000 -0.009857
												}
											}
										}
									}
								}
								JOINT mixamorig:LeftHandMiddle1
								{
									OFFSET 9.533394 0.000061 0.000044
									CHANNELS 6 Xposition Yposition Zposition Xrotation Yrotation Zrotation
									JOINT mixamorig:LeftHandMiddle2
									{
										OFFSET 3.699989 -0.000015 -0.000231
										CHANNELS 6 Xposition Yposition Zposition Xrotation Yrotation Zrotation
										JOINT mixamorig:LeftHandMiddle3
										{
											OFFSET 2.949997 -0.000015 -0.000059
											CHANNELS 6 Xposition Yposition Zposition Xrotation Yrotation Zrotation
											JOINT mixamorig:LeftHandMiddle4
											{
												OFFSET 2.952896 0.000031 0.000063
												CHANNELS 6 Xposition Yposition Zposition Xrotation Yrotation Zrotation
												End Site
												{
													OFFSET 295.289337 0.000000 0.022810
												}
											}
										}
									}
								}
								JOINT mixamorig:LeftHandRing1
								{
									OFFSET 9.104523 -0.042999 -1.865074
									CHANNELS 6 Xposition Yposition Zposition Xrotation Yrotation Zrotation
									JOINT mixamorig:LeftHandRing2
									{
										OFFSET 3.150009 -0.000031 0.000043
										CHANNELS 6 Xposition Yposition Zposition Xrotation Yrotation Zrotation
										JOINT mixamorig:LeftHandRing3
										{
											OFFSET 2.949982 -0.000015 0.000040
											CHANNELS 6 Xposition Yposition Zposition Xrotation Yrotation Zrotation
											JOINT mixamorig:LeftHandRing4
											{
												OFFSET 2.644348 0.000000 0.000057
												CHANNELS 6 Xposition Yposition Zposition Xrotation Yrotation Zrotation
												End Site
												{
													OFFSET 264.434631 0.000000 0.012105
												}
											}
										}
									}
								}
								JOINT mixamorig:LeftHandPinky1
								{
									OFFSET 8.077789 -0.486847 -3.806259
									CHANNELS 6 Xposition Yposition Zposition Xrotation Yrotation Zrotation
									JOINT mixamorig:LeftHandPinky2
									{
										OFFSET 3.599953 0.000031 0.014727
										CHANNELS 6 Xposition Yposition Zposition Xrotation Yrotation Zrotation
										JOINT mixamorig:LeftHandPinky3
										{
											OFFSET 2.100021 0.000015 0.007705
											CHANNELS 6 Xposition Yposition Zposition Xrotation Yrotation Zrotation
											JOINT mixamorig:LeftHandPinky4
											{
												OFFSET 2.125504 0.000031 0.007517
												CHANNELS 6 Xposition Yposition Zposition Xrotation Yrotation Zrotation
												End Site
												{
													OFFSET 212.550781 0.000000 0.625752
												}
											}
										}
									}
								}
							}
						}
					}
				}
			}
		}
	}
	JOINT mixamorig:RightUpLeg
	{
		OFFSET -8.207787 -6.751648 -1.599560
		CHANNELS 6 Xposition Yposition Zposition Xrotation Yrotation Zrotation
		JOINT mixamorig:RightLeg
		{
			OFFSET -0.000002 -44.370117 0.345942
			CHANNELS 6 Xposition Yposition Zposition Xrotation Yrotation Zrotation
			JOINT mixamorig:RightFoot
			{
				OFFSET 0.000003 -44.423679 -3.043532
				CHANNELS 6 Xposition Yposition Zposition Xrotation Yrotation Zrotation
				JOINT mixamorig:RightToeBase
				{
					OFFSET -0.000002 -8.728671 10.710558
					CHANNELS 6 Xposition Yposition Zposition Xrotation Yrotation Zrotation
					JOINT mixamorig:RightToe_End
					{
						OFFSET -0.000001 -0.000679 9.278119
						CHANNELS 6 Xposition Yposition Zposition Xrotation Yrotation Zrotation
						End Site
						{
							OFFSET 0.000000 -0.067690 927.812134
						}
					}
				}
			}
		}
	}
	JOINT mixamorig:LeftUpLeg
	{
		OFFSET 8.207793 -6.751686 -1.599556
		CHANNELS 6 Xposition Yposition Zposition Xrotation Yrotation Zrotation
		JOINT mixamorig:LeftLeg
		{
			OFFSET -0.000004 -44.370014 0.346954
			CHANNELS 6 Xposition Yposition Zposition Xrotation Yrotation Zrotation
			JOINT mixamorig:LeftFoot
			{
				OFFSET -0.000001 -44.423672 -3.044401
				CHANNELS 6 Xposition Yposition Zposition Xrotation Yrotation Zrotation
				JOINT mixamorig:LeftToeBase
				{
					OFFSET -0.000002 -8.728669 10.710558
					CHANNELS 6 Xposition Yposition Zposition Xrotation Yrotation Zrotation
					JOINT mixamorig:LeftToe_End
					{
						OFFSET -0.000003 -0.000679 9.278133
						CHANNELS 6 Xposition Yposition Zposition Xrotation Yrotation Zrotation
						End Site
						{
							OFFSET 0.000000 -0.068021 927.813477
						}
					}
				}
			}
		}
	}
}
MOTION
Frames: 3
Frame Time: 0.033333
0.000006 104.270477 1.554256 0.000010 0.000003 -0.000113 -0.000005 10.181587 0.131522 0.000001 -0.000003 0.000084 -0.000000 9.893967 -1.470711 0.000001 0.000000 -0.000000 -0.000000 9.220802 -1.370642 0.000000 -0.000000 -0.000000 0.000001 16.740433 -2.049030 0.000000 -0.000000 -0.000000 0.000000 9.617859 1.685014 0.000000 0.000000 0.000000 0.000002 22.037384 7.501101 0.000000 -0.000000 0.000000 -4.569968 11.014880 -2.160881 0.000008 0.000001 -0.000038 -10.592881 -0.524714 -2.231968 71.726241 17.415727 -12.636189 -27.841524 0.000016 0.000553 123.804460 69.809232 -105.153856 -28.328827 0.000021 0.000029 -0.000318 -0.000045 0.000006 -2.464396 -1.573853 2.682359 -39.280326 -155.207129 8.516085 -3.215265 -1.872568 1.924650 154.344011 33.109383 13.306630 -2.654949 -1.527878 1.513080 149.856632 26.724853 -33.992854 -2.018830 -1.152002 1.108059 -0.000004 -0.000005 0.000000 -9.108369 -0.517541 2.260158 105.361125 16.441732 -21.523316 -3.700064 0.000314 0.001538 103.210183 12.859941 -16.158605 -2.850068 0.000371 -0.000233 102.345733 9.590601 -11.900528 -2.772152 -0.000003 -0.000023 -0.000000 -0.000000 0.000002 -9.532582 0.000259 0.000264 99.217049 17.382481 -20.539837 -3.700077 0.000324 0.004000 99.578981 11.806028 -13.834309 -2.950066 0.000340 -0.001762 102.409165 10.434001 -12.951152 -2.946640 0.000002 -0.000148 -0.000002 0.000000 -0.000000 -9.103687 -0.042765 -1.864823 98.764460 18.300877 -21.221767 -3.379312 0.000323 -0.000776 100.068419 9.210617 -11.000674 -2.889755 0.000354 0.000689 106.964505 6.070931 -8.253663 -2.638810 -0.000004 0.000940 0.000001 -0.000000 0.000000 -8.076728 -0.486377 -3.805979 92.963273 18.574776 -19.382383 -3.600027 0.000286 -0.003507 95.423678 8.474290 -8.923319 -2.100006 0.000324 -0.005434 99.711473 4.268213 -4.804806 -2.115769 -0.000057 -0.003681 -0.000005 0.000002 -0.000003 4.570446 11.014691 -2.160851 -0.000018 0.000010 -0.000021 10.592522 -0.524507 -2.232406 73.292602 -56.230963 43.353273 27.841759 -0.000040 -0.000135 41.921502 -98.350646 47.826405 28.328823 -0.000031 0.000020 0.000020 -0.000087 -0.000000 2.466212 -1.576061 2.681919 94.040667 172.932726 -154.833777 3.217876 -1.871898 1.916597 280.106304 4.555906 382.735278 2.656076 -1.528642 1.514653 -90.796170 -0.983697 24.433460 2.020898 -1.154069 1.115145 0.000000 -0.000000 0.000003 9.109150 -0.517843 2.260090 -126.622090 -37.044672 -67.362276 3.699911 -0.000043 -0.000249 -4.262441 -158.141446 -21.733206 2.850133 0.000232 0.000375 -18.769951 -168.076325 -115.434760 2.774875 -0.000048 -0.000025 0.000000 -0.000001 0.000002 9.533122 0.000220 0.000189 -165.976752 -21.394514 -113.875673 3.700139 0.000256 -0.000209 -192.402864 -5.945838 51.065626 2.949987 0.000411 -0.000087 -203.320129 1.362866 -6.586049 2.952866 -0.000012 0.000065 0.000002 0.000000 0.000003 9.104289 -0.042910 -1.864965 -172.261783 -16.411770 -129.743323 3.149703 0.000420 0.000063 -188.745489 6.294882 -71.437099 2.949581 0.000325 -0.000039 -200.846863 22.481600 -94.426607 2.644330 0.000011 0.000054 -0.000001 -0.000002 0.000001 8.077516 -0.486728 -3.806150 187.633342 -13.250703 241.010820 3.599768 -0.000013 0.014782 -179.297424 9.827824 -193.580279 2.099731 0.000064 0.007655 -189.506262 40.165156 -155.236990 2.125510 -0.000033 0.007510 -0.000002 0.000000 0.000001 -8.207786 -6.751667 -1.599560 -0.077001 -0.000003 0.000080 -0.000002 -44.370110 0.345938 0.153719 -0.000000 -0.000000 0.000000 -44.423679 -3.043532 -0.076700 0.000000 -0.000002 -0.000006 -8.728667 10.710559 -0.000009 -0.000000 -0.000000 -0.000001 -0.000679 9.278123 0.000000 -0.000000 -0.000000 8.207792 -6.751710 -1.599556 -0.074518 -0.000003 0.000081 -0.000002 -44.370014 0.346960 0.148822 0.000002 0.000000 -0.000001 -44.423664 -3.044403 -0.074314 0.000000 -0.000002 -0.000004 -8.728671 10.710558 0.000007 -0.000000 -0.000000 0.000000 -0.000680 9.278137 -0.000000 0.000000 -0.000001 
0.000006 104.270477 1.554256 0.000010 0.000003 -0.000113 -0.000005 10.181587 0.131522 0.000001 -0.000003 0.000084 -0.000000 9.893967 -1.470711 0.000001 0.000000 -0.000000 -0.000000 9.220802 -1.370642 0.000000 -0.000000 -0.000000 0.000001 16.740433 -2.049030 0.000000 -0.000000 -0.000000 0.000000 9.617859 1.685014 0.000000 0.000000 0.000000 0.000002 22.037384 7.501101 0.000000 -0.000000 0.000000 -4.569968 11.014880 -2.160881 0.000008 0.000001 -0.000038 -10.592883 -0.524732 -2.231961 71.504041 20.771942 -15.033904 -27.841530 0.000018 0.000543 123.322303 70.204393 -105.001202 -28.328835 0.000023 0.000030 -0.000319 -0.000045 0.000006 -2.464408 -1.573865 2.682345 -39.320532 -155.332804 8.474783 -3.215271 -1.872530 1.924651 154.313877 33.088831 13.217600 -2.654956 -1.527899 1.513080 149.883160 26.781112 -33.477486 -2.018823 -1.152000 1.108050 -0.000001 -0.000003 0.000004 -9.108376 -0.517561 2.260152 105.399873 16.591043 -21.731261 -3.700085 0.000310 0.001555 103.203421 13.105250 -16.463802 -2.850089 0.000377 -0.000228 102.256374 9.897416 -12.260828 -2.772152 -0.000015 -0.000018 -0.000000 0.000001 -0.000001 -9.532604 0.000258 0.000282 99.202432 17.514477 -20.688570 -3.700066 0.000331 0.004004 99.481849 11.896768 -13.917382 -2.950045 0.000345 -0.001775 102.293018 10.645047 -13.185296 -2.946635 0.000000 -0.000158 -0.000001 0.000000 -0.000002 -9.103701 -0.042756 -1.864849 98.755014 18.314152 -21.233639 -3.379313 0.000323 -0.000781 99.878532 9.172572 -10.918816 -2.889749 0.000353 0.000674 106.667802 6.203593 -8.387171 -2.638804 0.000014 0.000939 0.000000 0.000000 -0.000002 -8.076760 -0.486380 -3.805983 93.097951 18.604269 -19.458184 -3.600036 0.000287 -0.003487 95.445507 8.538446 -8.996891 -2.100002 0.000333 -0.005452 99.507585 4.468026 -5.022689 -2.115769 -0.000043 -0.003673 -0.000001 0.000002 -0.000003 4.570446 11.014691 -2.160851 -0.000018 0.000010 -0.000021 10.592525 -0.524512 -2.232397 73.796355 -57.107932 44.445240 27.841755 -0.000042 -0.000153 41.060454 -98.181026 46.745511 28.328827 -0.000030 0.000024 0.000022 -0.000087 -0.000001 2.466214 -1.576043 2.681914 88.042259 174.185834 -153.184778 3.217866 -1.871888 1.916580 276.407538 5.316995 384.153854 2.656086 -1.528664 1.514662 -90.929304 0.835483 25.183807 2.020895 -1.154078 1.115150 -0.000006 0.000006 0.000001 9.109177 -0.517872 2.260091 -113.660857 -39.789465 -57.942947 3.699883 -0.000045 -0.000242 -1.930523 -157.235900 -9.493529 2.850148 0.000176 0.000387 -17.197851 -167.848279 -109.724032 2.774898 -0.000030 -0.000031 0.000000 0.000002 0.000002 9.533123 0.000216 0.000182 -164.901039 -22.338004 -112.267362 3.700128 0.000266 -0.000211 -192.268541 -5.172543 45.567013 2.949970 0.000395 -0.000091 -205.347998 2.644168 -11.709381 2.952863 -0.000043 0.000055 0.000002 -0.000000 0.000001 9.104286 -0.042947 -1.864975 -173.406960 -16.977941 -137.790365 3.149656 0.000342 0.000057 -187.368632 7.644807 -92.114274 2.949572 0.000260 -0.000037 -199.046862 25.317170 -106.486467 2.644319 0.000031 0.000055 -0.000000 -0.000002 0.000003 8.077514 -0.486766 -3.806154 186.747071 -14.388977 231.653625 3.599782 -0.000028 0.014775 -179.505008 9.848987 -191.062671 2.099723 0.000059 0.007657 -189.651568 41.700084 -155.840355 2.125501 0.000001 0.007528 -0.000002 -0.000002 0.000001 -8.207786 -6.751667 -1.599560 -0.077001 -0.000003 0.000080 -0.000002 -44.370110 0.345938 0.153719 -0.000000 -0.000000 0.000000 -44.423679 -3.043532 -0.076700 0.000000 -0.000002 -0.000006 -8.728667 10.710559 -0.000009 -0.000000 -0.000000 -0.000001 -0.000679 9.278123 0.000000 -0.000000 -0.000000 8.207792 -6.751710 -1.599556 -0.074518 -0.000003 0.000081 -0.000002 -44.370014 0.346960 0.148822 0.000002 0.000000 -0.000001 -44.423664 -3.044403 -0.074314 0.000000 -0.000002 -0.000004 -8.728671 10.710558 0.000007 -0.000000 -0.000000 0.000000 -0.000680 9.278137 -0.000000 0.000000 -0.000001 
0.000006 104.270477 1.554256 0.000010 0.000003 -0.000113 -0.000005 10.181587 0.131522 0.000001 -0.000003 0.000084 -0.000000 9.893967 -1.470711 0.000001 0.000000 -0.000000 -0.000000 9.220802 -1.370642 0.000000 -0.000000 -0.000000 0.000001 16.740433 -2.049030 0.000000 -0.000000 -0.000000 0.000000 9.617859 1.685014 0.000000 0.000000 0.000000 0.000002 22.037384 7.501101 0.000000 -0.000000 0.000000 -4.569968 11.014880 -2.160881 0.000008 0.000001 -0.000038 -10.592881 -0.524724 -2.231960 71.477465 19.855065 -14.356812 -27.841539 0.000032 0.000534 123.191887 69.729353 -104.361192 -28.328831 0.000023 0.000030 -0.000320 -0.000045 0.000007 -2.464407 -1.573827 2.682344 -42.398256 -157.899412 2.437182 -3.215259 -1.872556 1.924657 153.839575 32.914142 12.715078 -2.654965 -1.527889 1.513072 149.537580 26.845785 -33.426819 -2.018822 -1.152010 1.108070 -0.000004 -0.000003 0.000000 -9.108396 -0.517567 2.260166 105.820619 16.582813 -21.882879 -3.700091 0.000326 0.001544 103.770135 13.807175 -17.516635 -2.850087 0.000372 -0.000222 102.963824 10.617376 -13.316096 -2.772167 -0.000001 -0.000017 -0.000000 0.000000 -0.000002 -9.532609 0.000255 0.000272 99.298649 17.956893 -21.239669 -3.700086 0.000333 0.003991 99.499491 12.990766 -15.206679 -2.950085 0.000322 -0.001758 102.367836 11.359546 -14.086428 -2.946624 -0.000000 -0.000156 -0.000002 0.000000 -0.000000 -9.103710 -0.042767 -1.864825 98.991093 19.067110 -22.192967 -3.379336 0.000321 -0.000774 99.882371 10.438413 -12.420739 -2.889757 0.000368 0.000696 106.390189 6.899251 -9.272972 -2.638828 0.000003 0.000939 0.000001 -0.000000 -0.000001 -8.076756 -0.486392 -3.805996 93.606875 19.127094 -20.182835 -3.600050 0.000283 -0.003483 95.021571 9.304774 -9.762476 -2.100033 0.000314 -0.005449 98.666672 4.794156 -5.326912 -2.115768 -0.000042 -0.003680 0.000000 0.000000 -0.000003 4.570446 11.014691 -2.160851 -0.000018 0.000010 -0.000021 10.592529 -0.524509 -2.232401 74.150241 -57.840419 45.318066 27.841778 -0.000055 -0.000123 41.977298 -98.285842 47.839738 28.328825 -0.000029 0.000020 0.000020 -0.000089 -0.000000 2.466196 -1.576086 2.681915 86.585099 162.719695 -148.551205 3.217848 -1.871900 1.916592 281.362430 10.867820 383.962936 2.656067 -1.528675 1.514646 -87.980439 5.712888 26.022333 2.020903 -1.154069 1.115149 0.000001 0.000002 0.000001 9.109227 -0.517943 2.260087 -77.420631 -37.924356 -30.790445 3.699755 0.000087 -0.000173 16.574834 -149.354381 56.012377 2.850072 0.000029 0.000412 -8.985275 -164.912595 -61.372733 2.774883 -0.000026 -0.000024 0.000001 0.000001 0.000001 9.533133 0.000171 0.000163 -168.814409 -22.288494 -127.152536 3.700132 0.000263 -0.000212 -194.511001 -5.438906 40.898316 2.950004 0.000363 -0.000102 -208.700159 0.788126 -3.070663 2.952863 -0.000015 0.000066 0.000001 0.000002 0.000004 9.104321 -0.042996 -1.864991 -175.662152 -16.838264 -151.286682 3.149631 0.000283 0.000082 -184.462673 6.304059 -109.443017 2.949573 0.000301 0.000001 -193.264465 17.488211 -105.826138 2.644325 0.000039 0.000061 -0.000001 0.000001 -0.000003 8.077546 -0.486810 -3.806165 185.245741 -15.913120 218.281426 3.600067 0.000085 0.014806 -174.074939 7.089442 -267.136020 2.099803 -0.000027 0.007719 -177.721823 26.949413 -191.322587 2.125495 -0.000001 0.007520 0.000001 -0.000000 0.000000 -8.207786 -6.751667 -1.599560 -0.077001 -0.000003 0.000080 -0.000002 -44.370110 0.345938 0.153719 -0.000000 -0.000000 0.000000 -44.423679 -3.043532 -0.076700 0.000000 -0.000002 -0.000006 -8.728667 10.710559 -0.000009 -0.000000 -0.000000 -0.000001 -0.000679 9.278123 0.000000 -0.000000 -0.000000 8.207792 -6.751710 -1.599556 -0.074518 -0.000003 0.000081 -0.000002 -44.370014 0.346960 0.148822 0.000002 0.000000 -0.000001 -44.423664 -3.044403 -0.074314 0.000000 -0.000002 -0.000004 -8.728671 10.710558 0.000007 -0.000000 -0.000000 0.000000 -0.000680 9.278137 -0.000000 0.000000 -0.000001 
